<svg xmlns="http://www.w3.org/2000/svg" width="34.013" height="27.356" viewBox="0 0 34.013 27.356">
  <path id="Icon_metro-paper-plane" data-name="Icon metro-paper-plane" d="M36.8,5.616,4.161,17.116c-.525.185-.641.638-.018.885l7.016,2.811,4.159,1.665S35.351,7.769,35.621,7.569s.588.176.39.39S21.462,23.695,21.462,23.695v0l-.835.93,1.107.6s8.595,4.628,9.209,4.957a.942.942,0,0,0,1.39-.617C32.516,28.776,37.591,6.9,37.7,6.412c.146-.634-.274-1.02-.908-.8ZM15.281,32.469c0,.455.257.582.612.261C16.357,32.306,21.161,28,21.161,28l-5.88-3.039v7.512Z" transform="translate(-3.72 -5.552)" fill="#fffdfa"/>
</svg>
