<svg xmlns="http://www.w3.org/2000/svg" width="24.445" height="28.002" viewBox="0 0 24.445 28.002">
  <path id="Icon_open-paperclip" data-name="Icon open-paperclip" d="M17.525,0a7.133,7.133,0,0,0-4.94,2.067L2.845,11.6A9.612,9.612,0,0,0,16.439,25.19l4.379-4.379L18.4,18.393l-4.064,3.959-.315.455a6.156,6.156,0,0,1-8.759-8.654L15,4.519a3.617,3.617,0,0,1,5.045,0,3.554,3.554,0,0,1,0,4.94l-8.759,8.654a.941.941,0,1,1-1.331-1.331l.21-.105,3.188-3.293-2.417-2.417-3.4,3.4A4.335,4.335,0,0,0,13.671,20.5l8.759-8.548A6.989,6.989,0,0,0,17.49.035Z" transform="translate(-0.034)" fill="#fffdfa"/>
</svg>
