<svg xmlns="http://www.w3.org/2000/svg" width="34.569" height="33.713" viewBox="0 0 34.569 33.713">
  <path id="Icon_simple-github" data-name="Icon simple-github" d="M17.284.445a17.285,17.285,0,0,0-5.466,33.683c.864.163,1.181-.372,1.181-.831,0-.411-.014-1.5-.022-2.938C8.17,31.4,7.156,28.04,7.156,28.04a4.581,4.581,0,0,0-1.923-2.528c-1.566-1.072.121-1.05.121-1.05A3.624,3.624,0,0,1,8,26.242a3.683,3.683,0,0,0,5.034,1.437,3.685,3.685,0,0,1,1.095-2.312c-3.839-.432-7.873-1.919-7.873-8.541a6.668,6.668,0,0,1,1.779-4.638,6.145,6.145,0,0,1,.151-4.575S9.635,7.15,12.94,9.386a16.3,16.3,0,0,1,8.642,0c3.284-2.235,4.732-1.772,4.732-1.772a6.315,6.315,0,0,1,.173,4.575,6.7,6.7,0,0,1,1.772,4.638c0,6.64-4.04,8.1-7.886,8.527a4.138,4.138,0,0,1,1.167,3.2c0,2.313-.022,4.171-.022,4.733,0,.454.3.994,1.188.821A17.263,17.263,0,0,0,17.284.445" transform="translate(0 -0.445)" fill="#fffdfa"/>
</svg>
